<?xml version="1.0" encoding="UTF-8" standalone="no"?>
<!DOCTYPE svg PUBLIC "-//W3C//DTD SVG 1.1//EN" "http://www.w3.org/Graphics/SVG/1.1/DTD/svg11.dtd">
<svg width="100%" height="100%" viewBox="0 0 1024 1024" version="1.1" xmlns="http://www.w3.org/2000/svg" xmlns:xlink="http://www.w3.org/1999/xlink" xml:space="preserve" xmlns:serif="http://www.serif.com/" style="fill-rule:evenodd;clip-rule:evenodd;stroke-linejoin:round;stroke-miterlimit:2;">
    <g transform="matrix(2.76156,0,0,2.81885,-205.187,-322.876)">
        <rect x="74.301" y="114.542" width="370.804" height="363.269" style="fill:rgb(36,39,58);"/>
    </g>
    <g transform="matrix(1.15264,0,0,1.15264,-404.44,247.931)">
        <path d="M473.201,412.348L473.201,45.848L635.701,45.848C668.367,45.848 693.201,49.14 710.201,55.723C727.201,62.307 740.784,73.932 750.951,90.598C761.117,107.265 766.201,125.682 766.201,145.848C766.201,171.848 757.784,193.765 740.951,211.598C724.117,229.432 698.117,240.765 662.951,245.598C675.784,251.765 685.534,257.848 692.201,263.848C706.367,276.848 719.784,293.098 732.451,312.598L796.201,412.348L735.201,412.348L686.701,336.098C672.534,314.098 660.867,297.265 651.701,285.598C642.534,273.932 634.326,265.765 627.076,261.098C619.826,256.432 612.451,253.182 604.951,251.348C599.451,250.182 590.451,249.598 577.951,249.598L521.701,249.598L521.701,412.348L473.201,412.348ZM521.701,207.598L625.951,207.598C648.117,207.598 665.451,205.307 677.951,200.723C690.451,196.14 699.951,188.807 706.451,178.723C712.951,168.64 716.201,157.682 716.201,145.848C716.201,128.515 709.909,114.265 697.326,103.098C684.742,91.932 664.867,86.348 637.701,86.348L521.701,86.348L521.701,207.598Z" style="fill:rgb(202,211,245);fill-rule:nonzero;"/>
        <path d="M840.201,412.348L840.201,45.848L977.701,45.848C1005.7,45.848 1028.16,49.557 1045.08,56.973C1061.99,64.39 1075.24,75.807 1084.83,91.223C1094.41,106.64 1099.2,122.765 1099.2,139.598C1099.2,155.265 1094.95,170.015 1086.45,183.848C1077.95,197.682 1065.12,208.848 1047.95,217.348C1070.12,223.848 1087.16,234.932 1099.08,250.598C1110.99,266.265 1116.95,284.765 1116.95,306.098C1116.95,323.265 1113.33,339.223 1106.08,353.973C1098.83,368.723 1089.87,380.098 1079.2,388.098C1068.53,396.098 1055.16,402.14 1039.08,406.223C1022.99,410.307 1003.28,412.348 979.951,412.348L840.201,412.348ZM888.701,199.848L967.951,199.848C989.451,199.848 1004.87,198.432 1014.2,195.598C1026.53,191.932 1035.83,185.848 1042.08,177.348C1048.33,168.848 1051.45,158.182 1051.45,145.348C1051.45,133.182 1048.53,122.473 1042.7,113.223C1036.87,103.973 1028.53,97.64 1017.7,94.223C1006.87,90.807 988.284,89.098 961.951,89.098L888.701,89.098L888.701,199.848ZM888.701,369.098L979.951,369.098C995.617,369.098 1006.62,368.515 1012.95,367.348C1024.12,365.348 1033.45,362.015 1040.95,357.348C1048.45,352.682 1054.62,345.89 1059.45,336.973C1064.28,328.057 1066.7,317.765 1066.7,306.098C1066.7,292.432 1063.2,280.557 1056.2,270.473C1049.2,260.39 1039.49,253.307 1027.08,249.223C1014.66,245.14 996.784,243.098 973.451,243.098L888.701,243.098L888.701,369.098Z" style="fill:rgb(202,211,245);fill-rule:nonzero;"/>
    </g>
</svg>
